<?xml version="1.0" encoding="UTF-8" standalone="no"?>
<svg
   height="16"
   width="16"
   version="1.1"
   id="svg134"
   sodipodi:docname="avatar-default-symbolic.svg"
   inkscape:version="1.2 (dc2aeda, 2022-05-15)"
   xmlns:inkscape="http://www.inkscape.org/namespaces/inkscape"
   xmlns:sodipodi="http://sodipodi.sourceforge.net/DTD/sodipodi-0.dtd"
   xmlns="http://www.w3.org/2000/svg"
   xmlns:svg="http://www.w3.org/2000/svg">
  <defs
     id="defs138" />
  <sodipodi:namedview
     id="namedview136"
     pagecolor="#505050"
     bordercolor="#ffffff"
     borderopacity="1"
     inkscape:showpageshadow="0"
     inkscape:pageopacity="0"
     inkscape:pagecheckerboard="1"
     inkscape:deskcolor="#505050"
     showgrid="false"
     inkscape:zoom="10.683817"
     inkscape:cx="3.6035811"
     inkscape:cy="6.5519656"
     inkscape:window-width="1290"
     inkscape:window-height="456"
     inkscape:window-x="222"
     inkscape:window-y="38"
     inkscape:window-maximized="0"
     inkscape:current-layer="svg134" />
  <path
     d="M 8.0467998,0.03443864 A 3.9969823,3.7480701 0 0 0 6.470525,0.32610184 C 5.9849761,0.5121856 5.5543153,0.7853724 5.1954313,1.1377438 v 0.00396 l -0.00141,0.00264 C 4.8449917,1.4993533 4.5747732,1.9256303 4.3861831,2.4112957 4.1933709,2.8956415 4.1004834,3.4261782 4.1004834,3.9949873 c 0,0.5740882 0.09148,1.1099039 0.2856997,1.5955693 0.1899974,0.4764272 0.460216,0.8974252 0.8078409,1.2537558 l 0.00141,0.00264 c 0.3574767,0.3523714 0.7853226,0.6295174 1.2680568,0.8235197 v 0.00396 c 0.4869564,0.1860838 1.0175416,0.2771461 1.5762747,0.2771461 0.5559184,0 1.0836888,-0.091062 1.5720521,-0.2771461 v -0.00264 c 0.4827314,-0.194003 0.9063554,-0.471149 1.2553874,-0.8248402 0.358885,-0.3536911 0.633325,-0.7786483 0.82473,-1.2563953 0.19422,-0.4856654 0.287107,-1.0214811 0.287107,-1.596889 h 0.01408 c 0,-0.5674894 -0.09148,-1.0967065 -0.285699,-1.5810521 A 3.8998726,3.6570078 0 0 0 10.884095,1.141703 3.5184704,3.2993575 0 0 0 9.6216668,0.32610184 3.9899455,3.7414714 0 0 0 8.0453923,0.03443864 Z M 8.0805766,10.595022 c -3.2609184,0 -5.0117093,0.281105 -6.3135434,1.200966 -0.6502128,0.46191 -1.07946621,1.088789 -1.32153687,1.818606 -0.24207077,0.729818 -0.31806978,1.286749 -0.32088455,2.25676 l 7.92218802,0.0026 h 7.9221882 c -0.0014,-0.97133 -0.07319,-1.529582 -0.316663,-2.259399 -0.24207,-0.729818 -0.671324,-1.355377 -1.322945,-1.815967 -1.299018,-0.919829 -2.989292,-1.203574 -6.2488034,-1.203574 z"
     fill="#808080"
     id="path132"
     style="stroke-width:1.36287" />
</svg>
