<svg width="75" height="75" viewBox="0 0 75 75" fill="none" xmlns="http://www.w3.org/2000/svg">
<path d="M30.0764 10.679C29.3256 11.3188 28.9502 11.6387 28.5492 11.9075C27.6301 12.5235 26.5978 12.9511 25.5123 13.1654C25.0387 13.2589 24.547 13.2982 23.5635 13.3766C21.0926 13.5738 19.8571 13.6724 18.8264 14.0365C16.4424 14.8786 14.5672 16.7538 13.7251 19.1378C13.361 20.1685 13.2624 21.404 13.0653 23.8749C12.9868 24.8583 12.9475 25.3501 12.854 25.8237C12.6397 26.9092 12.2121 27.9415 11.5961 28.8606C11.3273 29.2616 11.0074 29.6371 10.3675 30.3879C8.75972 32.2746 7.95578 33.2178 7.4844 34.2042C6.39404 36.4855 6.39404 39.1372 7.4844 41.4186C7.95581 42.4049 8.75969 43.3481 10.3675 45.2348C11.0072 45.9856 11.3274 46.3611 11.5961 46.762C12.2121 47.6811 12.6397 48.7134 12.854 49.7991C12.9475 50.2727 12.9868 50.7645 13.0652 51.7477C13.2624 54.2187 13.361 55.4542 13.7251 56.485C14.5672 58.869 16.4424 60.7443 18.8264 61.5863C19.8571 61.9502 21.0925 62.0488 23.5633 62.2462C24.5467 62.3245 25.0387 62.364 25.5123 62.4574C26.5978 62.6717 27.6301 63.0993 28.5492 63.7154C28.9502 63.9839 29.3257 64.304 30.0765 64.9438C31.9632 66.5517 32.9064 67.3556 33.8928 67.827C36.1741 68.9173 38.8258 68.9173 41.1072 67.827C42.0935 67.3556 43.0367 66.5517 44.9234 64.9438C45.6742 64.304 46.0497 63.9839 46.4506 63.7154C47.3697 63.0993 48.402 62.6717 49.4877 62.4574C49.9613 62.364 50.4531 62.3245 51.4363 62.2462C53.907 62.0488 55.1428 61.9502 56.1736 61.5863C58.5576 60.7443 60.4329 58.869 61.2749 56.485C61.6388 55.4542 61.7374 54.2187 61.9348 51.748C62.0131 50.7648 62.0526 50.2727 62.146 49.7991C62.3603 48.7134 62.7879 47.6811 63.404 46.762C63.6725 46.3611 63.9926 45.9856 64.6324 45.2348C66.2403 43.3481 67.0442 42.4049 67.5156 41.4186C68.6059 39.1372 68.6059 36.4855 67.5156 34.2042C67.0442 33.2178 66.2403 32.2746 64.6324 30.3879C63.9926 29.6371 63.6725 29.2616 63.404 28.8606C62.7879 27.9415 62.3603 26.9092 62.146 25.8237C62.0526 25.3501 62.0131 24.8584 61.9348 23.875C61.7374 21.4042 61.6388 20.1685 61.2749 19.1378C60.4329 16.7538 58.5576 14.8786 56.1736 14.0365C55.1428 13.6724 53.9073 13.5738 51.4363 13.3767C50.4531 13.2982 49.9613 13.2589 49.4877 13.1654C48.402 12.9511 47.3697 12.5235 46.4506 11.9075C46.0497 11.6387 45.6742 11.3188 44.9234 10.6789C43.0367 9.07109 42.0935 8.26721 41.1072 7.7958C38.8258 6.70544 36.1741 6.70544 33.8928 7.7958C32.9064 8.26718 31.9631 9.07122 30.0764 10.679Z" fill="#2DB573"/>
<path d="M50.9852 31.2223C51.9651 30.2423 51.9651 28.6535 50.9852 27.6735C50.005 26.6935 48.4161 26.6935 47.4363 27.6735L32.4812 42.6285L27.564 37.7109C26.584 36.731 24.9951 36.731 24.0151 37.7109C23.0352 38.6911 23.0352 40.28 24.0151 41.2598L30.7069 47.9516C31.6869 48.9315 33.2757 48.9315 34.2556 47.9516L50.9852 31.2223Z" fill="#FCFCFC"/>
</svg>
